<?xml version="1.0" encoding="UTF-8" standalone="no"?>
<svg
   width="512px"
   height="512px"
   viewBox="0 0 512 512"
   id="Layer_1"
   style="enable-background:new 0 0 512 512;"
   version="1.1"
   xml:space="preserve"
   sodipodi:docname="email-password-icon.svg"
   inkscape:version="1.2.1 (9c6d41e410, 2022-07-14)"
   xmlns:inkscape="http://www.inkscape.org/namespaces/inkscape"
   xmlns:sodipodi="http://sodipodi.sourceforge.net/DTD/sodipodi-0.dtd"
   xmlns="http://www.w3.org/2000/svg"
   xmlns:svg="http://www.w3.org/2000/svg"><defs
   id="defs632" /><sodipodi:namedview
   id="namedview630"
   pagecolor="#ffffff"
   bordercolor="#000000"
   borderopacity="0.25"
   inkscape:showpageshadow="2"
   inkscape:pageopacity="0.0"
   inkscape:pagecheckerboard="0"
   inkscape:deskcolor="#d1d1d1"
   showgrid="false"
   inkscape:zoom="1.6347656"
   inkscape:cx="258.44683"
   inkscape:cy="256.91756"
   inkscape:window-width="1920"
   inkscape:window-height="1017"
   inkscape:window-x="1912"
   inkscape:window-y="-8"
   inkscape:window-maximized="1"
   inkscape:current-layer="Layer_1" /><style
   type="text/css"
   id="style615">
	.st0 {
    fill: #FFD0A1;
  }

  .st1 {
    fill: #E6E6E6;
  }

  .st2 {
    fill: #4D5152;
  }
</style>
  <path
   class="st0"
   d="M301,193.4v-10h-60v10H99.6v186.5c0,56.3,45.8,102.1,102.1,102.1H246v10h20v-10h44.3  c56.3,0,102.1-45.8,102.1-102.1V193.4H301z M284,398.2H228l18.7-57.7l-6.8-4.1c-9.7-5.8-15.6-16-15.6-27.3  c0-17.5,14.3-31.8,31.8-31.8s31.8,14.3,31.8,31.8c0,11.3-5.8,21.5-15.6,27.3l-6.8,4.1L284,398.2z"
   id="path617"
   style="fill:#f1b31c;fill-opacity:1" />
  <path
   class="st1"
   d="M256,51.1c-35.9,0-65,29.2-65,65v57.3h-21.1v-57.3c0-47.5,38.6-86.1,86.1-86.1c47.5,0,86.1,38.6,86.1,86.1v57.3  H321v-57.3C321,80.2,291.9,51.1,256,51.1z"
   id="path619"
   style="fill:#92d3f5;fill-opacity:1" />
  <g
   id="g627"><path
   class="st2"
   d="M311.5,418.2l-22.4-69.3c11.7-9.8,18.7-24.4,18.7-39.8c0-28.6-23.2-51.8-51.8-51.8s-51.8,23.2-51.8,51.8   c0,15.4,7,30,18.7,39.8l-22.4,69.3H311.5z M256,277.2c17.5,0,31.8,14.3,31.8,31.8c0,11.3-5.8,21.5-15.6,27.3l-6.8,4.1l18.7,57.7   H228l18.7-57.7l-6.8-4.1c-9.7-5.8-15.6-16-15.6-27.3C224.2,291.5,238.5,277.2,256,277.2z"
   id="path621"
   style="fill:#000000;fill-opacity:1" />
    <path
   class="st2"
   d="M362.1,173.4v-57.3C362.1,57.6,314.5,10,256,10c-58.5,0-106.1,47.6-106.1,106.1v57.3H79.6v206.5   c0,67.3,54.8,122.1,122.1,122.1H246v-20h-44.3c-56.3,0-102.1-45.8-102.1-102.1V193.4H241v-20H211v-57.3c0-24.8,20.2-45,45-45   s45,20.2,45,45v77.3h111.3v186.5c0,56.3-45.8,102.1-102.1,102.1H266v20h44.3c67.3,0,122.1-54.8,122.1-122.1V173.4H362.1z    M342.1,173.4H321v-57.3c0-35.9-29.2-65-65-65c-35.9,0-65,29.2-65,65v57.3h-21.1v-57.3c0-47.5,38.6-86.1,86.1-86.1   c47.5,0,86.1,38.6,86.1,86.1V173.4z"
   id="path623"
   style="fill:#000000;fill-opacity:1" />
    <rect
   class="st2"
   height="20"
   width="20"
   x="261"
   y="173.4"
   id="rect625"
   style="fill:#000000;fill-opacity:1" /></g></svg>
