<?xml version="1.0" encoding="UTF-8" standalone="no"?>
<svg
   width="50"
   height="50"
   viewBox="0 0 50 50"
   id="emoji"
   version="1.1"
   sodipodi:docname="email-person-invalid.svg"
   inkscape:version="1.2.1 (9c6d41e410, 2022-07-14)"
   xmlns:inkscape="http://www.inkscape.org/namespaces/inkscape"
   xmlns:sodipodi="http://sodipodi.sourceforge.net/DTD/sodipodi-0.dtd"
   xmlns="http://www.w3.org/2000/svg"
   xmlns:svg="http://www.w3.org/2000/svg">
  <defs
     id="defs56" />
  <sodipodi:namedview
     id="namedview54"
     pagecolor="#ffffff"
     bordercolor="#000000"
     borderopacity="0.25"
     inkscape:showpageshadow="2"
     inkscape:pageopacity="0.0"
     inkscape:pagecheckerboard="0"
     inkscape:deskcolor="#d1d1d1"
     showgrid="true"
     inkscape:zoom="11.625"
     inkscape:cx="19.053763"
     inkscape:cy="22.365591"
     inkscape:window-width="1920"
     inkscape:window-height="1017"
     inkscape:window-x="-8"
     inkscape:window-y="101"
     inkscape:window-maximized="1"
     inkscape:current-layer="line">
    <inkscape:grid
       type="xygrid"
       id="grid162"
       originx="0"
       originy="0"
       dotted="false"
       snapvisiblegridlinesonly="false" />
  </sodipodi:namedview>
  <g
     id="color"
     transform="translate(-11,-11.956989)">
    <path
       fill="#92d3f5"
       d="m 18,61 v -4.1 c 0,-5 3.8,-9 8.8,-9 6,5 12,5 18,0 5,0 9.2,4 9.2,9 V 61"
       id="path30" />
  </g>
  <g
     id="hair"
     transform="translate(-11,-11.956989)">
    <path
       fill="#f1b31c"
       d="m 26,40 c -6,0 -5,-16 -2,-20 6,-8 18,-8 24,0 3,4 4,20 -2,20"
       id="path33" />
  </g>
  <g
     id="skin"
     transform="translate(-11,-11.956989)">
    <path
       fill="#ffd0a1"
       d="m 25,34 c 0,8 4.8,11.9 10.8,11.9 6,0 11.2,-3.9 11.2,-11.9 0,-5.9 -2.2,-9.2 -2.2,-9.2 -2,0 -5.8,-3.5 -5.8,-3.5 0,0 -8.2,5.5 -12.8,5.5 0,0 -1.2,1.2 -1.2,7.2 z"
       id="path36" />
  </g>
  <g
     id="skin-shadow"
     transform="translate(-15.913978,-11.956989)" />
  <g
     id="line"
     transform="translate(-11,-11.956989)">
    <path
       fill="none"
       stroke="#000000"
       stroke-linecap="round"
       stroke-linejoin="round"
       stroke-width="2"
       d="m 26,40 c -6,0 -5,-16 -2,-20 6,-8 18,-8 24,0 3,4 4,20 -2,20"
       id="path40" />
    <path
       fill="none"
       stroke="#000000"
       stroke-linecap="round"
       stroke-linejoin="round"
       stroke-width="2"
       d="m 18,60 v -3.1 c 0,-5 3.8,-9 8.8,-9 6,5 12,5 18,0 5,0 9.2,4 9.2,9 V 60"
       id="path42" />
    <path
       d="m 42,33 c 0,1.1 -0.9,2 -2,2 -1.1,0 -2,-0.9 -2,-2 0,-1.1 0.9,-2 2,-2 1.1,0 2,0.9 2,2"
       id="path44" />
    <path
       d="m 34,33 c 0,1.1 -0.9,2 -2,2 -1.1,0 -2,-0.9 -2,-2 0,-1.1 0.9,-2 2,-2 1.1,0 2,0.9 2,2"
       id="path46" />
    <path
       fill="none"
       stroke="#000000"
       stroke-linejoin="round"
       stroke-width="2"
       d="m 25,34 c 0,8 4.8,11.9 10.8,11.9 6,0 11.2,-3.9 11.2,-11.9 0,-5.9 -2.2,-9.2 -2.2,-9.2 -2,0 -5.8,-3.5 -5.8,-3.5 0,0 -8.2,5.5 -12.8,5.5 0,0 -1.2,1.2 -1.2,7.2 z"
       id="path48" />
    <path
       fill="none"
       stroke="#000000"
       stroke-linecap="round"
       stroke-linejoin="round"
       stroke-width="2"
       d="m 30.849462,41.197019 c 1.35231,-4.680865 8.251591,-5.000414 10.301076,0"
       id="path50"
       sodipodi:nodetypes="cc" />
  </g>
</svg>
